<?xml version="1.0" encoding="utf-8"?>
<!-- Generator: Adobe Illustrator 24.0.1, SVG Export Plug-In . SVG Version: 6.00 Build 0)  -->
<svg version="1.1" id="Camada_1" xmlns="http://www.w3.org/2000/svg" xmlns:xlink="http://www.w3.org/1999/xlink" x="0px" y="0px"
	 viewBox="0 0 1080 1080" style="enable-background:new 0 0 1080 1080;" xml:space="preserve">
<style type="text/css">
	.st0{fill:#FEDC5C;stroke:#1D1D1B;stroke-width:15;stroke-miterlimit:10;}
	.st1{fill:#F4AD3B;}
	.st2{fill:#FEE5C8;}
	.st3{fill:#FA9F55;}
	.st4{fill:#FFFFFF;}
	.st5{fill:#1E1E1E;}
	.st6{fill:#ECF3F7;}
	.st7{fill:none;stroke:#1E1E1E;stroke-linecap:round;stroke-miterlimit:10;}
	.st8{fill:#FDAC5D;}
	.st9{fill:#1D1D1B;}
	.st10{fill:#FDAEAA;}
	.st11{fill:none;stroke:#1D1D1B;stroke-miterlimit:10;}
	.st12{fill:#F2F2F2;}
	.st13{fill:#FD211E;}
</style>
<g>
	<circle class="st0" cx="544.2" cy="534" r="396.8"/>
	<circle class="st1" cx="544.2" cy="534" r="357.8"/>
	<g>
		<path class="st2" d="M375.3,884.5c0,0-1.3,12.2-8.1,12.9c-6.9,0.6-18,0-31.9-6.4c-13.9-6.4-33.8-26.1-39-42
			c-5.1-15.9-14.6-35.3-13.1-48c1.5-12.9-4.3-26.8,11.4-25.9c0,0,6.4,3.9,8.1,9.6c1.9,5.8,7.7,3,13.9,16.1
			c6.2,13.1,29.6,44.8,34.9,65.1C357.1,886.2,377.9,875.7,375.3,884.5z"/>
		<path class="st2" d="M709.5,884.5c0,0,1.3,12.2,8.1,12.9c6.9,0.6,18,0,31.9-6.4s33.8-26.1,39-42s14.6-35.3,13.1-48
			c-1.5-12.9,4.3-26.8-11.4-25.9c0,0-6.4,3.9-8.1,9.6c-1.9,5.8-7.7,3-13.9,16.1c-6.4,13.1-29.6,44.8-34.9,65.1
			C727.8,886.2,707,875.7,709.5,884.5z"/>
		<g>
			<g>
				<path d="M388.2,908.1l-8.1,14.4c0,0-63.4-117.4-91.3-147c0,0-13.7-21.9-15.9-31.9c0,0-16.7,14.6-55.3,23.6
					c0,0,32.1-24.4,51.6-104.3c0,0-40.5,27.6-59.6,59.6c0,0,6-39.4,47.1-111.6c0,0-54.8,10.1-77.6-1.9c0,0,57.2,0,116.1-78
					c0,0,59.6-84.4,120.4-124.3s257.3-28.5,326.3,35.8s111.2,239.3,131.5,250c0,0-12.9,5.4-39.6-9.2c-26.8-14.4-2.8,3.9-0.6,7.3
					c2.1,3.4,10.7,11.8,21,17.4c0,0-24.6,9-52.3-22.3c0,0,27,86.1,59.3,103.3c0,0-39.8,9.6-59.3-13.7c0,0-89.3,116.8-92.5,133
					l38.1-133.5l-19.5-28.9L696.5,669l-74.3-1.3l-149.7-25.5L437,626.3l-61.5,98.5v123L388.2,908.1z"/>
			</g>
			<path class="st2" d="M580.8,942.5c0,0-114.4-3.9-163.7-17.1s-74.3-82.1-85.3-130.7c-10.9-48.6-15.2-88.3-12.2-97.5
				c0,0,21.2,84.6,30.4,92.5c0,0-26.1-94.3,4.3-208.2c0,0-5.6,48.6,13.3,107.8c0,0-1.9-174.6,92.5-290.3c0,0-21.9,89.5,76.1,233.7
				c0,0-63.8-105.8-54.2-205.7c0,0,51.2,95.5,96.2,149.7c45,54.2,40.7,79.1,40.7,79.1s-21.9-178.2-20.1-196
				c0,0,42.6,107.8,102.8,184.5c0,0-48.6-76.1-52.3-171.6c0,0,73.7,86.1,84.6,227.5c0,0,6.4-48.6,3.4-103.7c0,0,22.3,89.8,4.5,158.5
				c0,0,17.1-30.2,21-66c0,0,9.2,97-52.5,204.2C710.6,893.3,671.6,941.5,580.8,942.5z"/>
			<path class="st3" d="M319.6,697.2c-2.4,7.3-0.2,33.6,6.2,68.8c0-12.6,0.2-27.9,0.9-41.6C322.6,709.2,319.6,697.2,319.6,697.2z"/>
			<path class="st3" d="M460.2,399c-63.8,78.2-83.6,183.6-89.8,243.4c2.1,10.9,5.1,23.8,10.1,38.3c0,0-10.1-116.5,78.2-271.6
				C459.5,402.5,460.2,399,460.2,399z"/>
			<path class="st3" d="M342.4,745.2c3.9,11.4,8.6,24.6,13.9,35.6c0,0-16.5-134.5-1.9-199C336.8,647.5,338.1,706.9,342.4,745.2z"/>
			<path class="st3" d="M599.4,605.1c-5.4-8.4-12.4-17.8-21.2-28.3c-45-54.2-96.2-149.7-96.2-149.7c-0.4,4.9-0.9,9.9-0.9,14.8
				c4.9,14.4,17.8,36.8,45.4,72c79.1,100.3,80.6,132.4,80.6,135.4C607.8,636.2,604.6,620.8,599.4,605.1z"/>
			<path class="st3" d="M669.3,597.6C626.9,530.1,599,459.9,599,459.9c-0.4,3.9,0.4,15.6,1.7,31.5c29.4,62.1,84.6,153.8,84.6,153.8
				C683.2,636,677,618.2,669.3,597.6z"/>
			<path class="st3" d="M731,671.3c-17.8-124-81.4-198.6-81.4-198.6c0.2,6.2,0.6,12.4,1.3,18.4c2.1,3.2,4.3,6.6,6.9,10.5
				c62.3,92.1,70.5,187.2,70.5,187.2C729.3,683.1,730.3,677.3,731,671.3z"/>
			<path class="st3" d="M737.6,655.5c13.9,22.3,1.9,87.2,1.9,87.2c2.8-3.6,5.1-8.1,7.1-13.1c7.9-63.6-9.2-133-9.2-133
				C738.7,618,738.5,638.5,737.6,655.5z"/>
		</g>
		<g>
			<g>
				<path class="st4" d="M475.6,741.2c0,0-2.4-41.3-51.6-49.9c-49.3-8.6-69.4,43.9-67.5,59.6c1.9,15.9,3.6,39,36.4,49.3
					s62.8-4.9,74.8-25.3C477.1,758.7,475.6,741.2,475.6,741.2z"/>
				<g>
					<path class="st5" d="M467.7,774.8c-2.1,4.9-5.6,9.2-9.4,13.1c-3.9,3.9-8.4,6.9-13.1,9.4l-3.6,1.7c-1.3,0.6-2.6,0.9-3.9,1.5
						l-1.9,0.6c-0.6,0.2-1.3,0.4-1.9,0.4l-3.9,1.1c-1.3,0.2-2.6,0.4-4.1,0.6c-1.3,0.2-2.6,0.4-4.1,0.4l-4.1,0.2l-1.9,0.2h-1.9
						c-10.7,0-21.9-2.4-31.3-7.9c-4.7-2.8-9-6.2-12.6-10.1s-6.9-8.4-9.2-13.3v-0.2c0,0,0,0,0.2,0l0,0c1.3,2.4,3,4.5,4.7,6.4
						c1.7,2.1,3.4,4.1,5.4,5.8c3.9,3.6,8.1,6.9,12.6,9.2c9.2,5.1,19.7,7.7,30.2,7.9h1.9h1.9l4.1-0.2c1.3,0,2.6-0.2,3.9-0.4
						c1.3-0.2,2.6-0.4,3.9-0.6l3.9-0.9c0.6-0.2,1.3-0.2,1.9-0.4l1.9-0.6c1.3-0.4,2.6-0.9,3.9-1.3l3.6-1.7c4.7-2.4,9.2-5.4,13.1-9
						C461.7,783.8,465.1,779.5,467.7,774.8L467.7,774.8C467.5,774.8,467.7,774.8,467.7,774.8L467.7,774.8z"/>
				</g>
				<path class="st6" d="M475.6,741.2c0,0-2.4-41.3-51.6-49.9c-49.3-8.6-69.4,43.9-67.5,59.6c0.2,1.7,0.4,3.4,0.6,5.4
					c1.9,15.4,3.9-28.9,28.7-46.9c8.6-6.2,38.3-18.9,64.5,1.1c24.4,18.4,19.1,61.7,19.5,60.8C476.9,756.2,475.6,741.2,475.6,741.2z"
					/>
				<g>
					<path class="st5" d="M475.4,741.2c-0.6-7.3-3-14.6-6.4-21c-3.4-6.4-8.1-12.4-13.9-16.9c-3-2.1-6-4.3-9.4-5.8l-1.3-0.6
						c-0.4-0.2-0.9-0.4-1.3-0.4l-2.6-1.1l-2.6-0.9c-0.9-0.2-1.7-0.6-2.6-0.6c-7.1-1.7-14.6-2.4-21.9-2.1c-1.9,0-3.6,0.2-5.6,0.4
						l-2.8,0.2c-0.9,0-1.7,0.2-2.8,0.4c-3.6,0.6-7.1,1.9-10.1,3.6c-3.2,1.7-6.2,3.9-9.2,6c-1.5,1.1-2.8,2.4-4.3,3.4
						c-1.3,1.3-2.8,2.4-4.1,3.9c-10.5,10.3-17.1,24-18.9,38.8c0,0,0,0-0.2,0c0,0,0,0,0-0.2c0.2-1.9,0.2-3.6,0.4-5.6
						c0.4-1.9,0.6-3.6,1.1-5.6l0.6-2.8c0.2-0.9,0.4-1.7,0.9-2.8c0.6-1.7,1.3-3.6,1.9-5.1c3-6.9,7.3-13.1,12.6-18.6
						c5.1-5.4,11.4-9.9,17.8-13.5c3.4-1.7,7.1-3,10.7-3.6c0.9-0.2,1.9-0.2,2.8-0.4l2.8-0.2c1.9-0.2,3.6-0.2,5.6-0.2
						c7.5-0.2,15,0.4,22.3,2.4c0.9,0.2,1.7,0.4,2.8,0.9l2.6,0.9l2.6,1.1c0.4,0.2,0.9,0.4,1.3,0.6l1.3,0.6c3.4,1.5,6.6,3.6,9.4,6
						c5.8,4.7,10.5,10.7,13.9,17.4C472.8,726.4,475,733.7,475.4,741.2C475.6,741.2,475.6,741.2,475.4,741.2L475.4,741.2L475.4,741.2
						z"/>
				</g>
				<path d="M438.3,737.1c0,0-10.3-19.1-31.9-9c-21.6,10.1-9.9,43.5,12,43.1C440.5,770.7,443.7,747,438.3,737.1z"/>
			</g>
			<path class="st7" d="M478,697.2c0,0-66.4-26.6-86.3-38.3"/>
			<path class="st8" d="M500.9,725.1c0,0-3.2-15.9-18.6-21c-15.4-5.1-13.3-4.5-10.5,0C474.3,708.6,501.7,727.9,500.9,725.1z"/>
		</g>
		<g>
			<circle class="st9" cx="546.9" cy="796" r="1.9"/>
			<path class="st8" d="M531.1,798.2c0,0-1.9-0.6-8.1-9.9c-6-9.2-0.9-13.7-0.9-13.7c11.4-13.9-2.6-33.8-2.6-33.8s10.3,22.3-1.5,33.4
				C506.2,785.3,521.9,795.4,531.1,798.2z"/>
			<path class="st7" d="M519.5,740.7c0,0,13.9,19.9,2.6,33.8c0,0-5.1,4.5,0.9,13.7c6,9.2,8.1,9.9,8.1,9.9"/>
		</g>
		<g>
			<g>
				<path class="st4" d="M607.4,741.2c0,0,2.4-41.3,51.6-49.9c49.3-8.6,69.4,43.9,67.5,59.6c-1.9,15.9-3.6,39-36.4,49.3
					s-62.8-4.9-74.8-25.3C605.6,758.7,607.4,741.2,607.4,741.2z"/>
				<g>
					<path class="st5" d="M615.3,774.8c2.4,4.7,5.8,9,9.6,12.6c3.9,3.6,8.4,6.6,13.1,9l3.6,1.7c1.3,0.4,2.6,0.9,3.9,1.3l1.9,0.6
						c0.6,0.2,1.3,0.2,1.9,0.4l3.9,0.9c1.3,0.2,2.6,0.4,3.9,0.6c1.3,0.2,2.6,0.4,3.9,0.4l4.1,0.2h1.9h1.9c10.5-0.2,21-3,30.2-7.9
						c4.7-2.6,9-5.6,12.6-9.2c1.9-1.7,3.6-3.6,5.4-5.8s3.2-4.3,4.7-6.4l0,0c0,0,0,0,0.2,0c0,0,0,0,0,0.2c-2.4,4.9-5.6,9.2-9.2,13.3
						c-3.6,3.9-8.1,7.3-12.6,10.1c-9.4,5.6-20.6,7.9-31.3,7.9h-1.9l-1.9-0.2l-4.1-0.2c-1.3,0-2.8-0.4-4.1-0.4
						c-1.3-0.2-2.6-0.4-4.1-0.6l-3.9-1.1c-0.6-0.2-1.3-0.4-1.9-0.4l-1.9-0.6c-1.3-0.4-2.6-0.9-3.9-1.5l-3.6-1.7
						c-4.7-2.6-9.2-5.6-13.1-9.4C620.6,784,617.4,779.7,615.3,774.8C615.1,774.8,615.1,774.8,615.3,774.8L615.3,774.8L615.3,774.8z"
						/>
				</g>
				<path class="st6" d="M607.4,741.2c0,0,2.4-41.3,51.6-49.9c49.3-8.6,69.4,43.9,67.5,59.6c-0.2,1.7-0.4,3.4-0.6,5.4
					c-1.9,15.4-3.9-28.9-28.7-46.9c-8.6-6.2-38.3-18.9-64.5,1.1c-24.4,18.4-19.1,61.7-19.5,60.8
					C606.1,756.2,607.4,741.2,607.4,741.2z"/>
				<g>
					<path class="st5" d="M607.4,741.2c0.6-7.5,2.8-14.6,6-21.4c3.4-6.6,7.9-12.6,13.9-17.4c3-2.4,6-4.3,9.4-6l1.3-0.6
						c0.4-0.2,0.9-0.4,1.3-0.6l2.6-1.1l2.6-0.9c0.9-0.2,1.7-0.6,2.8-0.9c7.3-1.9,14.8-2.6,22.3-2.4c1.9,0,3.6,0.2,5.6,0.2l2.8,0.2
						c0.9,0,1.9,0.2,2.8,0.4c3.6,0.6,7.5,1.9,10.7,3.6c6.6,3.6,12.6,8.1,17.8,13.5c5.1,5.4,9.6,11.8,12.6,18.6
						c0.9,1.7,1.3,3.4,1.9,5.1c0.4,0.9,0.6,1.7,0.9,2.8l0.6,2.8c0.4,1.9,0.6,3.6,1.1,5.6c0.2,1.9,0.2,3.6,0.4,5.6c0,0,0,0,0,0.2
						c0,0,0,0-0.2,0c-1.5-14.8-8.4-28.5-18.9-38.8c-1.3-1.3-2.6-2.6-4.1-3.9c-1.5-1.1-2.8-2.4-4.3-3.4c-3-2.1-6-4.3-9.2-6
						c-3.2-1.7-6.6-3-10.1-3.6c-0.9-0.2-1.7-0.2-2.8-0.4l-2.8-0.2c-1.9-0.2-3.6-0.4-5.6-0.4c-7.3-0.2-14.8,0.2-21.9,2.1
						c-0.9,0.2-1.7,0.4-2.6,0.6l-2.6,0.9l-2.6,1.1c-0.4,0.2-0.9,0.4-1.3,0.4l-1.3,0.6c-3.4,1.5-6.4,3.4-9.4,5.8
						c-5.8,4.5-10.5,10.3-13.9,16.9C610.6,726.6,608.2,733.7,607.4,741.2L607.4,741.2L607.4,741.2
						C607.4,741.2,607.1,741.2,607.4,741.2z"/>
				</g>
				<path d="M644.4,737.1c0,0,10.3-19.1,31.9-9c21.6,10.1,9.9,43.5-12,43.1C642.5,770.7,639.3,747,644.4,737.1z"/>
			</g>
			<path d="M685.6,659.3c0,0-55.9,35.8-80.6,41.3"/>
			<path class="st8" d="M615.1,702.8c0,0-23.1,8.6-26.8,15.4c-3.6,6.9-3.6,7.3,0,6.9c3.6-0.4,11.6-2.4,25.1-17.1
				C613.6,708.2,620.2,700.7,615.1,702.8z"/>
		</g>
		<g>
			<path class="st10" d="M383.7,814.4c0,0,52.9,17.8,154.5,19.1c101.8,1.3,166.2-9.6,166.2-9.6s4.7-2.8,4.1,3.9
				c-0.6,6.6-3.9,39.6-28.9,63.6c-25.1,24.2-33.2,30-97.5,33.6c-64.3,3.6-117.4-4.9-151.9-20.1s-44.8-35.6-46.5-55.5
				C381.8,829.9,381.6,817,383.7,814.4z"/>
			<path class="st4" d="M386.5,822.8c3.2-0.6,6.6,0.2,9.4,2.6c2.4,2.1,6,4.9,10.3,8.6c2.4,2.1,6.9-12.2,10.5-11.4
				c3,0.6,6.2,1.1,9.9,1.7c2.6,0.4,3.2,9.6,6,10.1c2.1,0.4,6.4-8.1,8.8-7.9c24.6,3.6,57.2,6.6,97.3,7.1c33,0.4,62.1-0.4,86.3-1.7
				c2.1-0.2,5.8,9.2,7.9,9.2c2.4-0.2,3.2-9.9,5.4-9.9c13.3-0.9,24.9-1.9,34.5-2.8c0,0,7.3,20.1,14.8,9c1.5-2.4,3.2-4.3,5.4-6
				c3.2-2.6,6.2-3.6,7.3,0.9c1.1,4.3,7.7,3.4,7.7,3.4c-1.9,12.9-8.1,37.3-28.1,56.3c-15.6,15-24.6,22.9-44.6,27.6
				c-2.8,0.6-2.8-11.1-5.8-10.7c-3.2,0.6-9.4,13.5-13.1,13.9c-9.2,1.1-20.1,1.9-33.8,2.8c-64.3,3.6-117.4-4.9-151.9-20.1
				s-44.8-35.6-46.5-55.5c-0.9-8.6-1.3-15.9-1.5-21.4C382,824.5,384.1,823.2,386.5,822.8z"/>
			<path class="st11" d="M383.7,814.4c0,0,52.9,17.8,154.5,19.1c101.8,1.3,166.2-9.6,166.2-9.6s4.7-2.8,4.1,3.9
				c-0.6,6.6-3.9,39.6-28.9,63.6c-25.1,24.2-33.2,30-97.5,33.6c-64.3,3.6-117.4-4.9-151.9-20.1s-44.8-35.6-46.5-55.5
				C381.8,829.9,381.6,817,383.7,814.4z"/>
			<path class="st11" d="M415.8,897.8c0,0-5.8-18.2-4.3-33.6l-5.6-30.2"/>
			<path class="st11" d="M395.1,860.1c0,0,5.6,4.9,16.7,4.1c0,0,9.4,3.2,20.8,1.7c0,0,3.2,14.8,112.9,16.9c0,0,63.4-0.6,86.6-8.6
				c0,0,17.4,5.8,31.3,0c13.7-5.8,16.3-6.9,16.3-6.9s5.6,3,13.5-3.6"/>
			<path class="st11" d="M674.4,889.6c0,0,5.8-8.6,5.1-22.3c0,0,2.6-16.3,2.4-27"/>
			<path class="st11" d="M629.4,899.3c0,0,2.8-12.6,2.4-25.1c0,0,2.4-19.1,2.4-23.6"/>
			<path class="st11" d="M433,875.3c0,0,0.4-5.8-0.6-9.4v-8.8"/>
		</g>
	</g>
	<g>
		<path class="st11" d="M709.8,907c-0.2,0.4-0.2,0.9-0.4,1.3L709.8,907z"/>
		<path class="st11" d="M833.8,683.3c26.8,14.4,39.6,9.2,39.6,9.2c-20.4-10.5-62.6-185.7-131.5-250c-69-64.1-265.4-75.4-326.3-35.8
			S295.2,531,295.2,531c-58.9,78-116.1,78-116.1,78c22.7,12.2,77.6,1.9,77.6,1.9c-40.9,72.2-47.1,111.6-47.1,111.6
			c19.1-32.1,59.6-59.6,59.6-59.6c-19.5,79.9-51.6,104.3-51.6,104.3c38.6-9,55.3-23.6,55.3-23.6c1.9,10.1,15.9,31.9,15.9,31.9l0,0
			c-8.1,2.8-4.1,14.6-5.4,25.3c-1.5,12.9,7.9,32.3,13.1,48c5.1,15.9,24.9,35.6,39,42c13.3,6,23.8,6.9,30.8,6.4
			c8.4,15,13.9,25.3,13.9,25.3l7.7-13.5c8.8,7.7,18.4,13.5,29.6,16.5c49.3,13.3,163.7,17.1,163.7,17.1
			c90.8-1.1,129.8-49.3,129.8-49.3c0.2-0.4,0.6-1.1,0.9-1.5c0.4,1.1,1.1,2.1,1.7,3l-3.4,12.4c0.9-2.4,2.8-6,5.4-10.7
			c0.6,0.4,1.5,0.6,2.6,0.9c7.1,0.6,18,0,31.9-6.4c13.9-6.4,33.8-26.1,39-42c5.1-15.9,14.6-35.3,13.1-48c-1.1-8.8,1.3-18-1.9-22.7
			c1.5-1.9,2.1-2.8,2.1-2.8c19.5,23.6,59.3,13.7,59.3,13.7c-32.6-17.1-59.3-103.3-59.3-103.3c27.9,31.3,52.3,22.3,52.3,22.3
			c-10.1-5.8-18.6-13.9-21-17.4C831,687.2,807,669,833.8,683.3z"/>
	</g>
	<g>
		<g>
			<g>
				<path class="st12" d="M268.2,504.9c9.4-6,19.5-11.8,30.2-17.1c51-25.5,114.4-42.2,183.2-49.1c2.6-9.6,8.1-18.9,16.7-27.4
					c10.7-10.7,23.4-16.1,38.1-16.1s27.6,5.4,38.1,16.1c7.3,7.3,12.2,15.9,14.6,25.5c76.5,4.5,147.8,21.6,204.4,49.1
					c1.3-4.1,2.6-8.6,4.1-13.1c27.2-81.8,7.3-156.2-60-223.4c-54.4-54.4-119.1-81.2-194.1-79.9s-140.3,29.6-196,85.3
					c-31.5,31.5-54.4,69.2-68.8,113.3c-14.6,44.1-18.4,88.1-11.6,131.5C267.6,501.2,267.8,502.9,268.2,504.9z"/>
			</g>
			<g>
				<path class="st12" d="M324.1,539.1c-14.4,7.3-27.2,15-38.1,23.1c16.3,36.4,41.6,71.8,75.8,106.3L515,515.4
					c-6.9-6.9-12.9-13.7-17.8-20.4C431.7,500.4,371.5,515.6,324.1,539.1z"/>
			</g>
			<g>
				<path class="st12" d="M981.2,679.3c-28.9-28.9-64.5-43.7-106.5-43.7c-42-0.2-77.3,14.4-106.5,43.3
					c-29.1,29.1-43.5,64.1-43.3,105c0.2,40.9,15,76.3,44.6,106c30.4,30.4,65.6,45.8,104.8,45.8c39.4,0,74.3-15.2,104.8-45.8
					c29.4-29.4,44.1-64.5,44.6-105.6C1024.5,743.3,1010.1,708.4,981.2,679.3z"/>
			</g>
			<g>
				<path class="st12" d="M816,567.2c-12.2-10.1-27-19.5-44.3-28.1c-51.6-25.7-118.5-41.6-190.9-45.2L566,531.9
					c-12.2,31.7-13.5,60.4-4.3,86.3c9.4,25.9,32.6,57.4,69.6,94.5l0,0c15.4,15.4,40.5,15.4,55.9,0l136.9-136.9
					C821.4,572.8,818.6,570,816,567.2z"/>
			</g>
			<g>
				<g>
					<g>
						<path class="st13" d="M481.6,438.9c-68.8,6.6-132.2,23.6-183.2,49.1c-10.7,5.4-20.8,11.1-30.2,17.1
							c3.4,19.5,9.4,38.6,17.8,57.6c10.9-8.1,23.6-16.1,38.1-23.1c47.3-23.8,107.5-38.8,173.3-44.1
							C482.5,474.7,477.1,456,481.6,438.9z"/>
					</g>
					<g>
						<path class="st13" d="M816,567.2c-16.3-17.1-25.5-30.2-27.9-39c-2.1-8.6-0.4-22.7,5.1-42.4c-56.6-27.4-127.9-44.3-204.4-49.1
							c3.6,14.6,1.5,31.7-6,51.4l-2.1,5.6c72.4,3.9,139.3,19.5,190.9,45.2C789,547.7,803.8,557.4,816,567.2z"/>
					</g>
				</g>
			</g>
		</g>
	</g>
</g>
</svg>
