<?xml version="1.0" encoding="utf-8"?>
<!-- Generator: Adobe Illustrator 24.0.1, SVG Export Plug-In . SVG Version: 6.00 Build 0)  -->
<svg version="1.1" id="LogoQuiz" xmlns="http://www.w3.org/2000/svg" xmlns:xlink="http://www.w3.org/1999/xlink" x="0px" y="0px"
	 viewBox="0 0 1080 1080" style="enable-background:new 0 0 1080 1080;" xml:space="preserve">
<style type="text/css">
	.st0{fill:#0A0808;stroke:#FFFFFF;stroke-width:15;stroke-miterlimit:10;}
	.st1{fill:#FD211E;}
	.st2{display:none;enable-background:new    ;}
	.st3{font-family:'Bauhaus93';}
	.st4{font-size:118.1545px;}
	.st5{fill:#FEDC5C;stroke:#1D1D1B;stroke-width:15;stroke-miterlimit:10;}
	.st6{fill:#F4AD3B;}
	.st7{fill:#FEE5C8;}
	.st8{fill:#FA9F55;}
	.st9{fill:#FFFFFF;}
	.st10{fill:#1E1E1E;}
	.st11{fill:#ECF3F7;}
	.st12{fill:none;stroke:#1E1E1E;stroke-linecap:round;stroke-miterlimit:10;}
	.st13{fill:#FDAC5D;}
	.st14{fill:#1D1D1B;}
	.st15{fill:#FDAEAA;}
	.st16{fill:none;stroke:#1D1D1B;stroke-miterlimit:10;}
	.st17{fill:#F2F2F2;}
</style>
<g id="Fundo">
	<g>
		<path class="st0" d="M797.2,517.3c1.8-3.8,3-6.5,3.6-7.9c-0.6,1-1.5,2.7-2.8,5L797.2,517.3z"/>
		<path class="st0" d="M800.9,509.4c0.3-0.7,0.6-1.1,0.6-1.2C801.5,508.1,801.3,508.5,800.9,509.4z"/>
		<path class="st0" d="M791.8,460.8c3.1,3,6.5,5.6,10.1,7.9s6.9,3.7,9.9,4.2c1.9-6.5,4-12.3,6.5-17.6s5-10.6,7.7-15.9
			c3-5.7,5.9-11.3,8.7-17s4.8-10.6,5.9-14.9c0-1.6-1.6-4.5-4.6-8.7c-3.1-4.2-6.9-8.3-11.3-12.5c-4.4-4.2-9-7.7-13.7-10.7
			s-8.5-4.2-11.5-3.6h-4c-0.5,6.2-1.6,12.7-3,19.6c-1.5,6.9-3.2,13.7-5,20.4c-1.6,6.2-3,12-4.2,17.6c-1.2,5.5-2,10.6-2.2,15.1
			c0,1.9,1.1,4.3,3.2,7.3C786.1,454.9,788.7,457.8,791.8,460.8z"/>
		<path class="st0" d="M973,526.6c4.4-7.3,7.5-13.7,9.3-19.4c1.7-5.7,1.4-10.2-1-13.7c-0.3-0.3-1.3-1.1-3.2-2.4s-4-2.7-6.5-4
			c-2.4-1.3-4.8-2.6-7.3-3.6c-2.4-1.1-4.4-1.6-6.1-1.6c-1.3,1.6-4.2,3.7-8.7,6.3c-4.4,2.6-9.4,5.2-14.9,7.9
			c-5.5,2.7-11.3,5.3-17.4,7.9c-6.1,2.6-11.5,4.7-16.3,6.5s-8.5,2.9-11.1,3.4s-3.3,0-2.2-1.6l18.2-26.2c1.9-4.6,2.8-8.3,2.8-11.3
			c0-6.5-3.3-11.9-9.9-16.3c-6.6-4.4-13.5-8.1-20.8-11.1c-1.3,3.8-2.9,7.4-4.6,10.9c-1.8,3.5-3.7,6.9-5.9,10.1
			c-2.4,3.8-4.8,7.7-7.3,11.9c-2.4,4.2-4.6,8.3-6.7,12.3s-3.7,8-5,11.9s-2,7.3-2,10.3c0,5.1,2,9.2,6.1,12.1
			c-5.1,7.8-10,15.5-14.7,23.2s-9.4,15.3-13.9,22.8l-2.4,4.2l-2.5,3.5c-5.4,7.5-11.2,15.4-17.6,23.6c-6.3,8.2-12.9,16.1-19.8,23.6
			c-6.9,7.5-14,14.2-21.4,20s-14.9,10-22.4,12.7h-3.2c-3.2,0-4.8-2-4.6-6.1c0.1-4,1.3-9.3,3.6-15.9c2.3-6.6,5.4-14.1,9.5-22.4
			c4-8.3,8.3-16.9,12.9-25.6c4.6-8.7,9.3-17.4,14.1-26s9.3-16.4,13.3-23.4l14.5-26.6c0.8-4.3-0.2-8.7-3-13.1s-6.4-8.2-10.7-11.3
			c-4.3-3.1-8.8-5.3-13.5-6.7c-4.7-1.3-8.5-1.3-11.5,0h-2.4c-3,8.3-6.9,17.8-11.7,28.3c-4.8,10.5-10,21.5-15.3,33.1
			c-4,8.3-8,16.7-11.9,25c-1.7,3.6-3.3,7.2-4.9,10.8c-4.3,7.2-8.9,14.8-14,22.7c-5.5,8.6-11.4,16.8-17.8,24.4
			c-6.3,7.7-12.9,14.5-19.8,20.6c-6.9,6.1-13.9,10.3-21.2,12.7h-3.6c-1.6,0-2.4-3.6-2.4-10.9c0-5.9,1.4-13.5,4.2-22.6
			s6.3-18.8,10.3-29.1c4-10.2,8.3-20.5,12.9-30.9c4.6-10.4,8.7-19.6,12.5-27.7c2.4-5.1,4.5-9.5,6.3-13.3c1.7-3.8,3-6.7,3.8-8.9
			c1.6-4.6,0.9-9.2-2-13.9c-3-4.7-6.9-8.7-11.7-12.1s-9.9-5.9-15.1-7.7c-5.2-1.7-9.5-1.8-12.7-0.2h-2.8c-2.7,10.2-6,21.1-9.9,32.5
			c-3.9,11.4-8,22.9-12.3,34.5c-1.4,3.8-2.7,7.5-4,11.3s-2.7,7.5-4,11.3c-0.8,1.3-1.7,2.6-2.6,3.6c-0.9,1.1-1.7,2.3-2.2,3.6h0.4
			c-4.6,7.8-9.6,15.9-15.1,24.2s-11.3,16.2-17.4,23.6c-6.1,7.4-12.5,14-19.2,19.8s-13.7,10-21,12.7h-3.2c-1.6,0-2.4-3.6-2.4-10.9
			c0-5.7,1.3-13,4-22s6-18.6,9.9-28.7c3.9-10.1,8.1-20.2,12.5-30.3s8.5-19.2,12.3-27.2l10.9-24.2c1.6-4.6,0.9-9.2-2-13.9
			c-3-4.7-6.8-8.7-11.5-12.1s-9.7-5.9-14.9-7.7c-5.2-1.7-9.5-1.8-12.7-0.2h-2.8c-2.7,10.2-5.9,20.8-9.7,31.7s-7.7,22-11.7,33.3
			c-3,7.8-5.9,15.7-8.7,23.8s-5.5,15.9-8.1,23.4c-0.7,2-1.3,3.9-1.9,5.8c-0.9-1-1.8-2-2.8-3c-7.7-7.7-9.1-12.5-18.8-15.8
			c4.7-16.3,5.6-47.5,5.6-65.3c0-102.3-88.2-181.7-190.5-181.7S93,428.3,93,530.6c0,40.1,13.5,75.2,35.1,105.5l1.7,9.7
			c9.5,13.2,21.2,24.3,33.8,34.6c0.4,1.1,17.8,13.9,24.4,16.9c0.2,0.1,0.3,0.1,0.5,0.2c0.2,0.1,0.5,0.2,0.7,0.3s0.4,0.2,0.6,0.2
			c0.2,0.1,0.4,0.2,0.6,0.2c0.2,0.1,0.4,0.1,0.6,0.2c0.2,0.1,0.4,0.1,0.5,0.2c0.2,0.1,0.4,0.1,0.6,0.2c0.2,0.1,0.3,0.1,0.5,0.2
			c0.2,0.1,0.4,0.1,0.6,0.2c0.2,0,0.3,0.1,0.5,0.1c0.2,0.1,0.4,0.1,0.6,0.1c0.2,0,0.3,0.1,0.4,0.1c0.2,0,0.4,0.1,0.6,0.1
			c0.1,0,0.3,0.1,0.4,0.1c0.2,0,0.4,0.1,0.5,0.1s0.3,0,0.4,0.1c0.2,0,0.4,0.1,0.5,0.1s0.2,0,0.4,0.1c0.2,0,0.4,0,0.5,0.1
			c0.1,0,0.2,0,0.3,0c0.2,0,0.4,0,0.5,0.1c0.1,0,0.2,0,0.3,0c0.2,0,0.4,0,0.6,0c0.1,0,0.1,0,0.2,0c0.2,0,0.4,0,0.6,0h0.1
			c0.2,0,0.4,0,0.6,0c0,0,0,0,0.1,0c0.4,0,0.9,0,1.3,0c3.9,7,6.5,11.8,6.5,11.8l0,0l0,0l0.6-1.1l3-5.2c0.4,0.4,0.8,0.7,1.3,1.1
			c0.1,0.1,0.2,0.2,0.4,0.3c0.4,0.3,0.8,0.6,1.2,0.9c0.2,0.1,0.4,0.3,0.5,0.4c0.4,0.3,0.7,0.5,1.1,0.7c0.2,0.1,0.5,0.3,0.7,0.4
			c0.3,0.2,0.7,0.4,1,0.6c0.3,0.2,0.5,0.3,0.8,0.5s0.7,0.4,1,0.5c0.3,0.2,0.6,0.3,1,0.4c0.3,0.1,0.6,0.3,0.9,0.4
			c0.4,0.2,0.8,0.3,1.1,0.4c0.3,0.1,0.5,0.2,0.8,0.3c0.6,0.2,1.2,0.4,1.8,0.5c0.1,0,0.1,0,0.2,0.1c23,6.2,72.7,9.8,72.7,9.8
			c37.9-0.4,60.2-20.2,63.7-24.1c0.5-0.2,1-0.5,1.5-0.7l0,0c0.1,0.2,0.3,0.4,0.4,0.6l-1.6,5.8l-0.4,1.1l0.4-1.1
			c0.4-1.1,1.3-2.8,2.5-5l0,0c0.2,0.1,0.4,0.2,0.6,0.3l0,0c0.2,0.1,0.9,1.7,1.2,1.7c3.3,0.3,7.8-1.6,14.4-4.6c1.9-0.9,4-2.2,6.1-3.9
			c1,1.2,2.1,2.3,3.3,3.5c14.2,14.2,30.6,21.4,48.9,21.4c18.4,0,34.7-7.1,48.9-21.4c4.1-4.1,7.6-8.5,10.5-13.1
			c3.9,1.9,8.6,2.9,13.8,3.2c5.4,0,10.5-0.6,15.3-1.8s9.2-2.7,13.1-4.4c3.9-1.7,7.3-3.7,10.3-5.9s5.4-4,7.3-5.7
			c5.7-4.6,11-9.7,16.1-15.3c5.1-5.7,10.1-11.6,14.9-17.8c-0.8,4.6-1.2,9.2-1.2,13.7c0,10.2,2.6,18.8,7.9,25.8
			c5.2,7,13.3,10.8,24,11.3c5.4,0,10.5-0.6,15.3-1.8s9.2-2.7,13.1-4.4c3.9-1.7,7.3-3.7,10.3-5.9s5.4-4,7.3-5.7
			c8-7,15.4-14.5,22.2-22.6c-0.6,3.4-0.8,6.6-0.8,9.7c0,8.4,2.3,15.6,6.9,21.5c4.6,5.9,11.7,8.9,21.4,9.2c4.8,0,9.6-0.6,14.3-1.8
			s9.1-2.7,13.1-4.5s7.7-3.8,10.9-5.9s5.9-4.1,8.1-5.7c16.7-13.3,31.2-27.4,43.6-42.5c10.3-12.5,20-25.7,29.2-39.3
			c0.7-0.4,1.4-0.8,1.9-1.5c5.1-8.1,10.6-16.9,16.5-26.4s12-18.6,18.2-27.2h4c5.4,0.3,9.6,0.1,12.7-0.4c3.1-0.5,6.1-1.2,9.1-2
			c5.1-1.6,10.6-2.8,16.6-3.6c-1.3,0.5-2.8,1.3-4.4,2.4c-1.6,1.1-2.7,2.2-3.2,3.2c-1.3,3.2-3.9,8.3-7.7,15.3s-7.8,13.9-12.1,20.6
			c-3.2,4.6-7,9.7-11.3,15.3c-4.3,5.7-9.4,11.6-15.3,18c-5.9,6.3-12.9,12.9-20.8,19.8c-7.9,6.9-17.2,13.7-27.7,20.4h0.8
			c-1.9,0.8-3.4,2.2-4.4,4.2s-1.8,4.2-2.2,6.5s-0.5,4.4-0.2,6.5c0.3,2,0.7,3.4,1.2,4.2c10.2-5.4,18.5-9.1,24.8-11.1s11.4-3,15.1-3
			c3.5,0,6.5,0.6,8.9,1.8s4,2.4,4.8,3.4c3.8,4.6,6.5,10,8.3,16.1c1.7,6.2,2.6,12.8,2.6,19.8c0,5.4-0.5,11-1.6,16.8
			s-2.6,11.6-4.4,17.6c-5.4-1.9-10.6-3.5-15.5-4.8c-5-1.3-10.2-2.6-15.7-3.6c-5.5-1.1-11.5-1.9-18-2.4s-13.9-0.8-22.2-0.8
			c-14.5,0-28.5,2.1-41.8,6.3s-25,10-35.1,17.4s-18.2,16.1-24.2,26.2c-6.1,10.1-9.1,21.1-9.1,32.9c0,8.9,2.2,16.3,6.7,22.4
			c4.4,6.1,10.2,11,17.4,14.7c7.1,3.8,15.1,6.5,24,8.3c8.9,1.7,17.9,2.6,27,2.6c15.6,0,29.8-1.6,42.6-4.6
			c12.8-3.1,24.5-7.7,35.1-13.7c10.6-6.1,20.4-13.5,29.3-22.4c8.9-8.9,17.2-19,25-30.3l25.8,18.2l16.5,11.7
			c1.9,1.1,5.6,1.2,11.1,0.4s10.9-2.2,16.1-4c5.2-1.9,9.3-4.1,12.1-6.7c2.8-2.6,2.6-5-0.6-7.5c-1.1-0.5-2.1-1.3-3-2.2s-2-1.7-3-2.2
			h0.4c-9.4-6.5-18.8-12.9-28.3-19.2c-9.4-6.3-19.4-12.2-29.9-17.6c7-15.6,10.5-31.5,10.5-47.6c0-12.6-2.9-24.7-8.7-36.1
			c-5.8-11.4-15.4-21.1-28.9-28.9h1.6c4-3,8.3-6.4,12.7-10.3c4.4-3.9,8.7-7.7,12.7-11.5s7.6-7.3,10.7-10.5c3.1-3.2,5.3-5.7,6.7-7.3
			l11.3-14.5h-0.4c7-8.9,13.7-17.5,20-25.8C963.2,541.7,968.6,533.9,973,526.6z M831.5,782.3c-7.8,9.5-15.9,17.8-24.2,24.8
			s-17.1,12.4-26.2,16.3c-9.1,3.9-18.6,5.9-28.3,5.9c-4.8,0-10-0.5-15.3-1.6c-5.4-1.1-10.3-3-14.7-5.7s-8.1-6.3-11.1-10.9
			c-3-4.6-4.4-10.5-4.4-17.8c-0.5-9.4,2-17.6,7.7-24.6s12.8-12.7,21.4-17.2c8.6-4.4,18.2-7.7,28.7-9.9s20.5-3.2,29.9-3.2
			c11.8,0.3,22.5,1.4,32.1,3.4c9.5,2,18.6,4.9,27.2,8.7C846.9,762.2,839.3,772.8,831.5,782.3z"/>
		<path class="st0" d="M362.7,705.3l0.2-0.6C362.8,704.9,362.8,705.1,362.7,705.3z"/>
	</g>
</g>
<g id="Letras">
	<g>
		<path class="st1" d="M642.6,483.4c3.2-1.6,7.5-1.5,12.7,0.2c5.2,1.8,10.3,4.3,15.1,7.7c4.8,3.4,8.7,7.4,11.7,12.1s3.6,9.4,2,13.9
			c-0.8,2.2-2.1,5.1-3.8,8.9c-1.8,3.8-3.8,8.2-6.3,13.3c-3.8,8.1-7.9,17.3-12.5,27.7s-8.9,20.7-12.9,30.9s-7.5,19.9-10.3,29.1
			c-2.8,9.2-4.2,16.7-4.2,22.6c0,7.3,0.8,10.9,2.4,10.9h3.6c7.3-2.4,14.3-6.7,21.2-12.7c6.9-6.1,13.5-12.9,19.8-20.6
			c6.3-7.7,12.2-15.8,17.8-24.4c5.5-8.6,10.6-16.8,15.1-24.6l6.1-10.5c1.3-2.2,3.4-3.5,6.1-4c2.7-0.5,5.2-0.5,7.5,0.2s4,2,5,3.8
			c1.1,1.9,0.8,4.2-0.8,6.9l-9.7,15.3c-8.3,13.5-17.4,27.2-27.2,41.2s-21.2,26.6-34.1,37.9c-1.9,1.6-4.3,3.5-7.3,5.7
			s-6.4,4.1-10.3,5.9c-3.9,1.8-8.3,3.2-13.1,4.4s-10,1.8-15.3,1.8c-10.8-0.5-18.8-4.3-24-11.3s-7.9-15.6-7.9-25.8
			c0-4.6,0.4-9.1,1.2-13.7c-4.8,6.2-9.8,12.1-14.9,17.8c-5.1,5.7-10.5,10.8-16.1,15.3c-1.9,1.6-4.3,3.5-7.3,5.7s-6.4,4.1-10.3,5.9
			c-3.9,1.8-8.3,3.2-13.1,4.4s-10,1.8-15.3,1.8c-10.5-0.5-18.4-4.2-23.6-11.1c-5.2-6.9-7.9-15.4-7.9-25.6c0-5.7,0.5-11,1.6-16.1
			c1.1-4.8,2.6-10.6,4.4-17.2c1.9-6.6,4.1-13.7,6.7-21.2s5.2-15.3,8.1-23.4s5.7-16,8.7-23.8c4-11.3,7.9-22.4,11.7-33.3
			c3.8-10.9,7-21.5,9.7-31.7h2.8c3.2-1.6,7.5-1.5,12.7,0.2c5.2,1.8,10.2,4.3,14.9,7.7c4.7,3.4,8.5,7.4,11.5,12.1s3.6,9.4,2,13.9
			l-10.9,24.2c-3.8,8.1-7.9,17.2-12.3,27.2c-4.4,10.1-8.6,20.2-12.5,30.3s-7.2,19.6-9.9,28.7c-2.7,9-4,16.3-4,22
			c0,7.3,0.8,10.9,2.4,10.9h3.2c7.3-2.7,14.3-6.9,21-12.7s13.1-12.4,19.2-19.8c6.1-7.4,11.8-15.3,17.4-23.6
			c5.5-8.3,10.6-16.4,15.1-24.2h-0.4c0.5-1.3,1.3-2.6,2.2-3.6c0.9-1.1,1.8-2.3,2.6-3.6c1.3-3.8,2.7-7.5,4-11.3s2.7-7.5,4-11.3
			c4.3-11.6,8.4-23.1,12.3-34.5c3.9-11.4,7.2-22.3,9.9-32.5h2.8V483.4z"/>
		<path class="st1" d="M759.3,483c3-1.3,6.8-1.3,11.5,0c4.7,1.4,9.2,3.6,13.5,6.7s7.9,6.9,10.7,11.3s3.8,8.8,3,13.1l-14.5,26.6
			c-4,7-8.5,14.8-13.3,23.4c-4.8,8.6-9.6,17.3-14.1,26c-4.6,8.7-8.9,17.3-12.9,25.6s-7.2,15.8-9.5,22.4c-2.3,6.6-3.5,11.9-3.6,15.9
			s1.4,6.1,4.6,6.1h3.2c7.5-2.7,15-6.9,22.4-12.7s14.5-12.4,21.4-20c6.9-7.5,13.5-15.4,19.8-23.6c6.3-8.2,12.2-16.1,17.6-23.6
			l6.1-8.5c1.1-1.3,2.8-2.1,5.2-2.2c2.4-0.1,4.6,0.1,6.7,0.8c2,0.7,3.6,1.8,4.6,3.2c1.1,1.5,0.8,3.2-0.8,5h0.4
			c-10.8,16.7-22.3,32.6-34.7,47.6c-12.4,15.1-26.9,29.2-43.6,42.5c-2.2,1.6-4.8,3.6-8.1,5.7s-6.9,4.2-10.9,5.9
			c-4,1.8-8.4,3.3-13.1,4.5c-4.7,1.2-9.5,1.8-14.3,1.8c-9.7-0.3-16.8-3.3-21.4-9.2c-4.6-5.9-6.9-13-6.9-21.5c0-6.7,1.3-14.3,4-22.6
			h-0.4c1.3-5.1,3.4-11.1,6.1-18c2.7-6.9,5.7-14.2,9.1-22c3.4-7.8,7-15.9,10.9-24.2s7.9-16.7,11.9-25c5.4-11.6,10.5-22.6,15.3-33.1
			c4.8-10.5,8.7-19.9,11.7-28.3h2.4V483z M799.3,372c3-0.5,6.8,0.7,11.5,3.6c4.7,3,9.3,6.5,13.7,10.7s8.2,8.3,11.3,12.5
			s4.6,7.1,4.6,8.7c-1.1,4.3-3,9.3-5.9,14.9c-2.8,5.7-5.7,11.3-8.7,17c-2.7,5.4-5.2,10.7-7.7,15.9s-4.6,11.1-6.5,17.6
			c-3-0.5-6.3-1.9-9.9-4.2c-3.6-2.3-7-4.9-10.1-7.9s-5.7-5.9-7.9-8.9s-3.2-5.4-3.2-7.3c0.3-4.6,1-9.6,2.2-15.1s2.6-11.4,4.2-17.6
			c1.9-6.7,3.6-13.5,5-20.4c1.5-6.9,2.5-13.4,3-19.6L799.3,372L799.3,372z M797.2,517.3l0.8-2.8c2.2-3.8,3.3-5.9,3.4-6.3
			C801.6,507.8,800.2,510.8,797.2,517.3z"/>
		<path class="st1" d="M891.3,771.6c-7.8,11.3-16.1,21.4-25,30.3c-8.9,8.9-18.6,16.3-29.3,22.4c-10.6,6.1-22.3,10.6-35.1,13.7
			c-12.8,3.1-27,4.6-42.6,4.6c-9.1,0-18.2-0.9-27-2.6c-8.9-1.8-16.9-4.5-24-8.3s-12.9-8.7-17.4-14.7c-4.4-6.1-6.7-13.5-6.7-22.4
			c0-11.8,3-22.8,9.1-32.9c6.1-10.1,14.1-18.8,24.2-26.2c10.1-7.4,21.8-13.2,35.1-17.4s27.2-6.3,41.8-6.3c8.3,0,15.7,0.3,22.2,0.8
			s12.4,1.3,18,2.4c5.5,1.1,10.8,2.3,15.7,3.6c5,1.3,10.2,3,15.5,4.8c1.9-5.9,3.4-11.8,4.4-17.6c1.1-5.8,1.6-11.4,1.6-16.8
			c0-7-0.9-13.6-2.6-19.8c-1.8-6.2-4.5-11.6-8.3-16.1c-0.8-1.1-2.4-2.2-4.8-3.4s-5.4-1.8-8.9-1.8c-3.8,0-8.8,1-15.1,3
			s-14.6,5.7-24.8,11.1c-0.5-0.8-0.9-2.2-1.2-4.2s-0.2-4.2,0.2-6.5s1.1-4.4,2.2-6.5s2.6-3.4,4.4-4.2h-0.8
			c10.5-6.7,19.7-13.5,27.7-20.4c7.9-6.9,14.9-13.5,20.8-19.8c5.9-6.3,11-12.3,15.3-18s8.1-10.8,11.3-15.3
			c4.3-6.7,8.3-13.6,12.1-20.6s6.3-12.1,7.7-15.3c0.5-1.1,1.6-2.2,3.2-3.2c1.6-1.1,3.1-1.9,4.4-2.4c-5.9,0.8-11.4,2-16.6,3.6
			c-3,0.8-6,1.5-9.1,2s-7.3,0.7-12.7,0.4h-4c-6.2,8.6-12.2,17.7-18.2,27.2c-5.9,9.6-11.4,18.4-16.5,26.4c-1.1,1.3-2.8,2.1-5,2.2
			c-2.3,0.1-4.5-0.1-6.7-0.8s-3.9-1.7-5.2-3.2s-1.5-3-0.4-4.6l3.6-6.5c4.6-7.5,9.2-15.1,13.9-22.8s9.6-15.4,14.7-23.2
			c-4-3-6.1-7-6.1-12.1c0-3,0.7-6.4,2-10.3s3-7.9,5-11.9s4.2-8.1,6.7-12.3c2.4-4.2,4.8-8.1,7.3-11.9c2.2-3.2,4.1-6.6,5.9-10.1
			c1.7-3.5,3.3-7.1,4.6-10.9c7.3,3,14.2,6.7,20.8,11.1s9.9,9.9,9.9,16.3c0,3-0.9,6.7-2.8,11.3l-18.2,26.2c-1.1,1.6-0.3,2.2,2.2,1.6
			c2.6-0.5,6.3-1.7,11.1-3.4c4.8-1.7,10.3-3.9,16.3-6.5c6.1-2.6,11.8-5.2,17.4-7.9c5.5-2.7,10.5-5.3,14.9-7.9s7.3-4.6,8.7-6.3
			c1.6,0,3.6,0.5,6.1,1.6c2.4,1.1,4.8,2.3,7.3,3.6c2.4,1.3,4.6,2.7,6.5,4s3,2.2,3.2,2.4c2.4,3.5,2.8,8.1,1,13.7
			c-1.8,5.7-4.8,12.1-9.3,19.4c-4.4,7.3-9.8,15.1-16.1,23.4c-6.3,8.3-13,17-20,25.8h0.4L926,590.4c-1.4,1.6-3.6,4-6.7,7.3
			c-3.1,3.2-6.7,6.7-10.7,10.5s-8.3,7.6-12.7,11.5s-8.7,7.3-12.7,10.3h-1.6c13.5,7.8,23.1,17.4,28.9,28.9
			c5.8,11.4,8.7,23.5,8.7,36.1c0,16.1-3.5,32-10.5,47.6c10.5,5.4,20.4,11.2,29.9,17.6c9.4,6.3,18.8,12.7,28.3,19.2h-0.4
			c1.1,0.5,2.1,1.3,3,2.2s1.9,1.7,3,2.2c3.2,2.4,3.4,4.9,0.6,7.5c-2.8,2.6-6.9,4.8-12.1,6.7c-5.2,1.9-10.6,3.2-16.1,4
			s-9.2,0.7-11.1-0.4l-16.5-11.7L891.3,771.6z M752.8,829.3c9.7,0,19.1-2,28.3-5.9s17.9-9.4,26.2-16.3c8.3-7,16.4-15.3,24.2-24.8
			c7.8-9.6,15.3-20.1,22.6-31.7c-8.6-3.8-17.7-6.7-27.2-8.7c-9.6-2-20.2-3.2-32.1-3.4c-9.4,0-19.4,1.1-29.9,3.2
			c-10.5,2.2-20,5.5-28.7,9.9c-8.6,4.4-15.7,10.2-21.4,17.2s-8.2,15.2-7.7,24.6c0,7.3,1.5,13.2,4.4,17.8c3,4.6,6.7,8.2,11.1,10.9
			c4.4,2.7,9.4,4.6,14.7,5.7C742.9,828.8,748,829.3,752.8,829.3z"/>
	</g>
</g>
<g id="Luffy">
	<g id="Camada_2_2_">
		<text transform="matrix(1 0 0 1 -58.5554 547.1929)" class="st2 st3 st4">?</text>
		<g>
			<circle class="st5" cx="285.6" cy="530.6" r="185.2"/>
			<circle class="st6" cx="285.6" cy="530.6" r="167"/>
			<g>
				<path class="st7" d="M206.8,694.2c0,0-0.6,5.7-3.8,6s-8.4,0-14.9-3s-15.8-12.2-18.2-19.6c-2.4-7.4-6.8-16.5-6.1-22.4
					c0.7-6-2-12.5,5.3-12.1c0,0,3,1.8,3.8,4.5c0.9,2.7,3.6,1.4,6.5,7.5s13.8,20.9,16.3,30.4C198.3,695,208,690.1,206.8,694.2z"/>
				<path class="st7" d="M362.8,694.2c0,0,0.6,5.7,3.8,6s8.4,0,14.9-3s15.8-12.2,18.2-19.6s6.8-16.5,6.1-22.4
					c-0.7-6,2-12.5-5.3-12.1c0,0-3,1.8-3.8,4.5c-0.9,2.7-3.6,1.4-6.5,7.5c-3,6.1-13.8,20.9-16.3,30.4
					C371.3,695,361.6,690.1,362.8,694.2z"/>
				<g>
					<g>
						<path d="M212.8,705.2l-3.8,6.7c0,0-29.6-54.8-42.6-68.6c0,0-6.4-10.2-7.4-14.9c0,0-7.8,6.8-25.8,11c0,0,15-11.4,24.1-48.7
							c0,0-18.9,12.9-27.8,27.8c0,0,2.8-18.4,22-52.1c0,0-25.6,4.7-36.2-0.9c0,0,26.7,0,54.2-36.4c0,0,27.8-39.4,56.2-58
							s120.1-13.3,152.3,16.7s51.9,111.7,61.4,116.7c0,0-6,2.5-18.5-4.3c-12.5-6.7-1.3,1.8-0.3,3.4c1,1.6,5,5.5,9.8,8.1
							c0,0-11.5,4.2-24.4-10.4c0,0,12.6,40.2,27.7,48.2c0,0-18.6,4.5-27.7-6.4c0,0-41.7,54.5-43.2,62.1l17.8-62.3l-9.1-13.5
							l-14.8-35.8L322,593l-69.9-11.9l-16.5-7.4l-28.7,46v57.4L212.8,705.2z"/>
					</g>
					<path class="st7" d="M302.7,721.3c0,0-53.4-1.8-76.4-8s-34.7-38.3-39.8-61s-7.1-41.2-5.7-45.5c0,0,9.9,39.5,14.2,43.2
						c0,0-12.2-44,2-97.2c0,0-2.6,22.7,6.2,50.3c0,0-0.9-81.5,43.2-135.5c0,0-10.2,41.8,35.5,109.1c0,0-29.8-49.4-25.3-96
						c0,0,23.9,44.6,44.9,69.9c21,25.3,19,36.9,19,36.9s-10.2-83.2-9.4-91.5c0,0,19.9,50.3,48,86.1c0,0-22.7-35.5-24.4-80.1
						c0,0,34.4,40.2,39.5,106.2c0,0,3-22.7,1.6-48.4c0,0,10.4,41.9,2.1,74c0,0,8-14.1,9.8-30.8c0,0,4.3,45.3-24.5,95.3
						C363.3,698.3,345.1,720.8,302.7,721.3z"/>
					<path class="st8" d="M180.8,606.8c-1.1,3.4-0.1,15.7,2.9,32.1c0-5.9,0.1-13,0.4-19.4C182.2,612.4,180.8,606.8,180.8,606.8z"/>
					<path class="st8" d="M246.4,467.6c-29.8,36.5-39,85.7-41.9,113.6c1,5.1,2.4,11.1,4.7,17.9c0,0-4.7-54.4,36.5-126.8
						C246.1,469.2,246.4,467.6,246.4,467.6z"/>
					<path class="st8" d="M191.4,629.2c1.8,5.3,4,11.5,6.5,16.6c0,0-7.7-62.8-0.9-92.9C188.8,583.6,189.4,611.3,191.4,629.2z"/>
					<path class="st8" d="M311.4,563.8c-2.5-3.9-5.8-8.3-9.9-13.2c-21-25.3-44.9-69.9-44.9-69.9c-0.2,2.3-0.4,4.6-0.4,6.9
						c2.3,6.7,8.3,17.2,21.2,33.6C314.3,568,315,583,315,584.4C315.3,578.3,313.8,571.1,311.4,563.8z"/>
					<path class="st8" d="M344,560.3c-19.8-31.5-32.8-64.3-32.8-64.3c-0.2,1.8,0.2,7.3,0.8,14.7c13.7,29,39.5,71.8,39.5,71.8
						C350.5,578.2,347.6,569.9,344,560.3z"/>
					<path class="st8" d="M372.8,594.7c-8.3-57.9-38-92.7-38-92.7c0.1,2.9,0.3,5.8,0.6,8.6c1,1.5,2,3.1,3.2,4.9
						c29.1,43,32.9,87.4,32.9,87.4C372,600.2,372.5,597.5,372.8,594.7z"/>
					<path class="st8" d="M375.9,587.3c6.5,10.4,0.9,40.7,0.9,40.7c1.3-1.7,2.4-3.8,3.3-6.1c3.7-29.7-4.3-62.1-4.3-62.1
						C376.4,569.8,376.3,579.4,375.9,587.3z"/>
				</g>
				<g>
					<g>
						<path class="st9" d="M253.6,627.3c0,0-1.1-19.3-24.1-23.3s-32.4,20.5-31.5,27.8c0.9,7.4,1.7,18.2,17,23s29.3-2.3,34.9-11.8
							C254.3,635.5,253.6,627.3,253.6,627.3z"/>
						<g>
							<path class="st10" d="M249.9,643c-1,2.3-2.6,4.3-4.4,6.1c-1.8,1.8-3.9,3.2-6.1,4.4l-1.7,0.8c-0.6,0.3-1.2,0.4-1.8,0.7
								l-0.9,0.3c-0.3,0.1-0.6,0.2-0.9,0.2l-1.8,0.5c-0.6,0.1-1.2,0.2-1.9,0.3c-0.6,0.1-1.2,0.2-1.9,0.2l-1.9,0.1l-0.9,0.1h-0.9
								c-5,0-10.2-1.1-14.6-3.7c-2.2-1.3-4.2-2.9-5.9-4.7s-3.2-3.9-4.3-6.2V642c0,0,0,0,0.1,0l0,0c0.6,1.1,1.4,2.1,2.2,3
								c0.8,1,1.6,1.9,2.5,2.7c1.8,1.7,3.8,3.2,5.9,4.3c4.3,2.4,9.2,3.6,14.1,3.7h0.9h0.9l1.9-0.1c0.6,0,1.2-0.1,1.8-0.2
								c0.6-0.1,1.2-0.2,1.8-0.3l1.8-0.4c0.3-0.1,0.6-0.1,0.9-0.2l0.9-0.3c0.6-0.2,1.2-0.4,1.8-0.6l1.7-0.8c2.2-1.1,4.3-2.5,6.1-4.2
								C247.1,647.2,248.7,645.2,249.9,643L249.9,643C249.8,643,249.9,643,249.9,643L249.9,643z"/>
						</g>
						<path class="st11" d="M253.6,627.3c0,0-1.1-19.3-24.1-23.3s-32.4,20.5-31.5,27.8c0.1,0.8,0.2,1.6,0.3,2.5
							c0.9,7.2,1.8-13.5,13.4-21.9c4-2.9,17.9-8.8,30.1,0.5c11.4,8.6,8.9,28.8,9.1,28.4C254.2,634.3,253.6,627.3,253.6,627.3z"/>
						<g>
							<path class="st10" d="M253.5,627.3c-0.3-3.4-1.4-6.8-3-9.8s-3.8-5.8-6.5-7.9c-1.4-1-2.8-2-4.4-2.7l-0.6-0.3
								c-0.2-0.1-0.4-0.2-0.6-0.2l-1.2-0.5l-1.2-0.4c-0.4-0.1-0.8-0.3-1.2-0.3c-3.3-0.8-6.8-1.1-10.2-1c-0.9,0-1.7,0.1-2.6,0.2
								l-1.3,0.1c-0.4,0-0.8,0.1-1.3,0.2c-1.7,0.3-3.3,0.9-4.7,1.7c-1.5,0.8-2.9,1.8-4.3,2.8c-0.7,0.5-1.3,1.1-2,1.6
								c-0.6,0.6-1.3,1.1-1.9,1.8c-4.9,4.8-8,11.2-8.8,18.1c0,0,0,0-0.1,0c0,0,0,0,0-0.1c0.1-0.9,0.1-1.7,0.2-2.6
								c0.2-0.9,0.3-1.7,0.5-2.6l0.3-1.3c0.1-0.4,0.2-0.8,0.4-1.3c0.3-0.8,0.6-1.7,0.9-2.4c1.4-3.2,3.4-6.1,5.9-8.7
								c2.4-2.5,5.3-4.6,8.3-6.3c1.6-0.8,3.3-1.4,5-1.7c0.4-0.1,0.9-0.1,1.3-0.2l1.3-0.1c0.9-0.1,1.7-0.1,2.6-0.1
								c3.5-0.1,7,0.2,10.4,1.1c0.4,0.1,0.8,0.2,1.3,0.4l1.2,0.4l1.2,0.5c0.2,0.1,0.4,0.2,0.6,0.3l0.6,0.3c1.6,0.7,3.1,1.7,4.4,2.8
								c2.7,2.2,4.9,5,6.5,8.1C252.3,620.4,253.3,623.8,253.5,627.3C253.6,627.3,253.6,627.3,253.5,627.3L253.5,627.3L253.5,627.3z"
								/>
						</g>
						<path d="M236.2,625.4c0,0-4.8-8.9-14.9-4.2c-10.1,4.7-4.6,20.3,5.6,20.1C237.2,641.1,238.7,630,236.2,625.4z"/>
					</g>
					<path class="st12" d="M254.7,606.8c0,0-31-12.4-40.3-17.9"/>
					<path class="st13" d="M265.4,619.8c0,0-1.5-7.4-8.7-9.8c-7.2-2.4-6.2-2.1-4.9,0C253,612.1,265.8,621.1,265.4,619.8z"/>
				</g>
				<g>
					<circle class="st14" cx="286.9" cy="652.9" r="0.9"/>
					<path class="st13" d="M279.5,653.9c0,0-0.9-0.3-3.8-4.6c-2.8-4.3-0.4-6.4-0.4-6.4c5.3-6.5-1.2-15.8-1.2-15.8s4.8,10.4-0.7,15.6
						C267.9,647.9,275.2,652.6,279.5,653.9z"/>
					<path class="st12" d="M274.1,627.1c0,0,6.5,9.3,1.2,15.8c0,0-2.4,2.1,0.4,6.4c2.8,4.3,3.8,4.6,3.8,4.6"/>
				</g>
				<g>
					<g>
						<path class="st9" d="M315.1,627.3c0,0,1.1-19.3,24.1-23.3s32.4,20.5,31.5,27.8c-0.9,7.4-1.7,18.2-17,23s-29.3-2.3-34.9-11.8
							C314.3,635.5,315.1,627.3,315.1,627.3z"/>
						<g>
							<path class="st10" d="M318.8,643c1.1,2.2,2.7,4.2,4.5,5.9s3.9,3.1,6.1,4.2l1.7,0.8c0.6,0.2,1.2,0.4,1.8,0.6l0.9,0.3
								c0.3,0.1,0.6,0.1,0.9,0.2l1.8,0.4c0.6,0.1,1.2,0.2,1.8,0.3c0.6,0.1,1.2,0.2,1.8,0.2l1.9,0.1h0.9h0.9
								c4.9-0.1,9.8-1.4,14.1-3.7c2.2-1.2,4.2-2.6,5.9-4.3c0.9-0.8,1.7-1.7,2.5-2.7s1.5-2,2.2-3l0,0c0,0,0,0,0.1,0c0,0,0,0,0,0.1
								c-1.1,2.3-2.6,4.3-4.3,6.2c-1.7,1.8-3.8,3.4-5.9,4.7c-4.4,2.6-9.6,3.7-14.6,3.7h-0.9l-0.9-0.1l-1.9-0.1
								c-0.6,0-1.3-0.2-1.9-0.2c-0.6-0.1-1.2-0.2-1.9-0.3l-1.8-0.5c-0.3-0.1-0.6-0.2-0.9-0.2l-0.9-0.3c-0.6-0.2-1.2-0.4-1.8-0.7
								l-1.7-0.8c-2.2-1.2-4.3-2.6-6.1-4.4C321.3,647.3,319.8,645.3,318.8,643C318.7,643,318.7,643,318.8,643L318.8,643L318.8,643z"
								/>
						</g>
						<path class="st11" d="M315.1,627.3c0,0,1.1-19.3,24.1-23.3s32.4,20.5,31.5,27.8c-0.1,0.8-0.2,1.6-0.3,2.5
							c-0.9,7.2-1.8-13.5-13.4-21.9c-4-2.9-17.9-8.8-30.1,0.5c-11.4,8.6-8.9,28.8-9.1,28.4C314.5,634.3,315.1,627.3,315.1,627.3z"/>
						<g>
							<path class="st10" d="M315.1,627.3c0.3-3.5,1.3-6.8,2.8-10c1.6-3.1,3.7-5.9,6.5-8.1c1.4-1.1,2.8-2,4.4-2.8l0.6-0.3
								c0.2-0.1,0.4-0.2,0.6-0.3l1.2-0.5l1.2-0.4c0.4-0.1,0.8-0.3,1.3-0.4c3.4-0.9,6.9-1.2,10.4-1.1c0.9,0,1.7,0.1,2.6,0.1l1.3,0.1
								c0.4,0,0.9,0.1,1.3,0.2c1.7,0.3,3.5,0.9,5,1.7c3.1,1.7,5.9,3.8,8.3,6.3s4.5,5.5,5.9,8.7c0.4,0.8,0.6,1.6,0.9,2.4
								c0.2,0.4,0.3,0.8,0.4,1.3l0.3,1.3c0.2,0.9,0.3,1.7,0.5,2.6c0.1,0.9,0.1,1.7,0.2,2.6c0,0,0,0,0,0.1c0,0,0,0-0.1,0
								c-0.7-6.9-3.9-13.3-8.8-18.1c-0.6-0.6-1.2-1.2-1.9-1.8c-0.7-0.5-1.3-1.1-2-1.6c-1.4-1-2.8-2-4.3-2.8s-3.1-1.4-4.7-1.7
								c-0.4-0.1-0.8-0.1-1.3-0.2l-1.3-0.1c-0.9-0.1-1.7-0.2-2.6-0.2c-3.4-0.1-6.9,0.1-10.2,1c-0.4,0.1-0.8,0.2-1.2,0.3l-1.2,0.4
								l-1.2,0.5c-0.2,0.1-0.4,0.2-0.6,0.2l-0.6,0.3c-1.6,0.7-3,1.6-4.4,2.7c-2.7,2.1-4.9,4.8-6.5,7.9
								C316.6,620.5,315.5,623.8,315.1,627.3L315.1,627.3L315.1,627.3C315.1,627.3,315,627.3,315.1,627.3z"/>
						</g>
						<path d="M332.4,625.4c0,0,4.8-8.9,14.9-4.2s4.6,20.3-5.6,20.1C331.5,641.1,330,630,332.4,625.4z"/>
					</g>
					<path d="M351.6,589.1c0,0-26.1,16.7-37.6,19.3"/>
					<path class="st13" d="M318.7,609.4c0,0-10.8,4-12.5,7.2s-1.7,3.4,0,3.2s5.4-1.1,11.7-8C318,611.9,321.1,608.4,318.7,609.4z"/>
				</g>
				<g>
					<path class="st15" d="M210.7,661.5c0,0,24.7,8.3,72.1,8.9c47.5,0.6,77.6-4.5,77.6-4.5s2.2-1.3,1.9,1.8
						c-0.3,3.1-1.8,18.5-13.5,29.7c-11.7,11.3-15.5,14-45.5,15.7s-54.8-2.3-70.9-9.4s-20.9-16.6-21.7-25.9
						C209.8,668.7,209.7,662.7,210.7,661.5z"/>
					<path class="st9" d="M212,665.4c1.5-0.3,3.1,0.1,4.4,1.2c1.1,1,2.8,2.3,4.8,4c1.1,1,3.2-5.7,4.9-5.3c1.4,0.3,2.9,0.5,4.6,0.8
						c1.2,0.2,1.5,4.5,2.8,4.7c1,0.2,3-3.8,4.1-3.7c11.5,1.7,26.7,3.1,45.4,3.3c15.4,0.2,29-0.2,40.3-0.8c1-0.1,2.7,4.3,3.7,4.3
						c1.1-0.1,1.5-4.6,2.5-4.6c6.2-0.4,11.6-0.9,16.1-1.3c0,0,3.4,9.4,6.9,4.2c0.7-1.1,1.5-2,2.5-2.8c1.5-1.2,2.9-1.7,3.4,0.4
						c0.5,2,3.6,1.6,3.6,1.6c-0.9,6-3.8,17.4-13.1,26.3c-7.3,7-11.5,10.7-20.8,12.9c-1.3,0.3-1.3-5.2-2.7-5
						c-1.5,0.3-4.4,6.3-6.1,6.5c-4.3,0.5-9.4,0.9-15.8,1.3c-30,1.7-54.8-2.3-70.9-9.4s-20.9-16.6-21.7-25.9c-0.4-4-0.6-7.4-0.7-10
						C209.9,666.2,210.9,665.6,212,665.4z"/>
					<path class="st16" d="M210.7,661.5c0,0,24.7,8.3,72.1,8.9c47.5,0.6,77.6-4.5,77.6-4.5s2.2-1.3,1.9,1.8
						c-0.3,3.1-1.8,18.5-13.5,29.7c-11.7,11.3-15.5,14-45.5,15.7s-54.8-2.3-70.9-9.4s-20.9-16.6-21.7-25.9
						C209.8,668.7,209.7,662.7,210.7,661.5z"/>
					<path class="st16" d="M225.7,700.4c0,0-2.7-8.5-2-15.7l-2.6-14.1"/>
					<path class="st16" d="M216,682.8c0,0,2.6,2.3,7.8,1.9c0,0,4.4,1.5,9.7,0.8c0,0,1.5,6.9,52.7,7.9c0,0,29.6-0.3,40.4-4
						c0,0,8.1,2.7,14.6,0c6.4-2.7,7.6-3.2,7.6-3.2s2.6,1.4,6.3-1.7"/>
					<path class="st16" d="M346.4,696.6c0,0,2.7-4,2.4-10.4c0,0,1.2-7.6,1.1-12.6"/>
					<path class="st16" d="M325.4,701.1c0,0,1.3-5.9,1.1-11.7c0,0,1.1-8.9,1.1-11"/>
					<path class="st16" d="M233.7,689.9c0,0,0.2-2.7-0.3-4.4v-4.1"/>
				</g>
			</g>
			<g>
				<path class="st16" d="M362.9,704.7c-0.1,0.2-0.1,0.4-0.2,0.6L362.9,704.7z"/>
				<path class="st16" d="M420.8,600.3c12.5,6.7,18.5,4.3,18.5,4.3c-9.5-4.9-29.2-86.7-61.4-116.7C345.7,458,254,452.7,225.6,471.2
					s-56.2,58-56.2,58c-27.5,36.4-54.2,36.4-54.2,36.4c10.6,5.7,36.2,0.9,36.2,0.9c-19.1,33.7-22,52.1-22,52.1
					c8.9-15,27.8-27.8,27.8-27.8c-9.1,37.3-24.1,48.7-24.1,48.7c18-4.2,25.8-11,25.8-11c0.9,4.7,7.4,14.9,7.4,14.9l0,0
					c-3.8,1.3-1.9,6.8-2.5,11.8c-0.7,6,3.7,15.1,6.1,22.4c2.4,7.4,11.6,16.6,18.2,19.6c6.2,2.8,11.1,3.2,14.4,3
					c3.9,7,6.5,11.8,6.5,11.8l3.6-6.3c4.1,3.6,8.6,6.3,13.8,7.7c23,6.2,76.4,8,76.4,8c42.4-0.5,60.6-23,60.6-23
					c0.1-0.2,0.3-0.5,0.4-0.7c0.2,0.5,0.5,1,0.8,1.4l-1.6,5.8c0.4-1.1,1.3-2.8,2.5-5c0.3,0.2,0.7,0.3,1.2,0.4c3.3,0.3,8.4,0,14.9-3
					s15.8-12.2,18.2-19.6c2.4-7.4,6.8-16.5,6.1-22.4c-0.5-4.1,0.6-8.4-0.9-10.6c0.7-0.9,1-1.3,1-1.3c9.1,11,27.7,6.4,27.7,6.4
					c-15.2-8-27.7-48.2-27.7-48.2c13,14.6,24.4,10.4,24.4,10.4c-4.7-2.7-8.7-6.5-9.8-8.1C419.5,602.1,408.3,593.6,420.8,600.3z"/>
			</g>
			<g>
				<g>
					<g>
						<path class="st17" d="M156.8,517c4.4-2.8,9.1-5.5,14.1-8c23.8-11.9,53.4-19.7,85.5-22.9c1.2-4.5,3.8-8.8,7.8-12.8
							c5-5,10.9-7.5,17.8-7.5s12.9,2.5,17.8,7.5c3.4,3.4,5.7,7.4,6.8,11.9c35.7,2.1,69,10.1,95.4,22.9c0.6-1.9,1.2-4,1.9-6.1
							c12.7-38.2,3.4-72.9-28-104.3c-25.4-25.4-55.6-37.9-90.6-37.3s-65.5,13.8-91.5,39.8c-14.7,14.7-25.4,32.3-32.1,52.9
							c-6.8,20.6-8.6,41.1-5.4,61.4C156.5,515.3,156.6,516.1,156.8,517z"/>
					</g>
					<g>
						<path class="st17" d="M182.9,533c-6.7,3.4-12.7,7-17.8,10.8c7.6,17,19.4,33.5,35.4,49.6l71.5-71.5c-3.2-3.2-6-6.4-8.3-9.5
							C233.1,514.9,205,522,182.9,533z"/>
					</g>
					<g>
						<path class="st17" d="M489.6,598.4c-13.5-13.5-30.1-20.4-49.7-20.4c-19.6-0.1-36.1,6.7-49.7,20.2
							c-13.6,13.6-20.3,29.9-20.2,49c0.1,19.1,7,35.6,20.8,49.5c14.2,14.2,30.6,21.4,48.9,21.4c18.4,0,34.7-7.1,48.9-21.4
							c13.7-13.7,20.6-30.1,20.8-49.3C509.8,628.3,503.1,612,489.6,598.4z"/>
					</g>
					<g>
						<path class="st17" d="M412.5,546.1c-5.7-4.7-12.6-9.1-20.7-13.1c-24.1-12-55.3-19.4-89.1-21.1l-6.9,17.7
							c-5.7,14.8-6.3,28.2-2,40.3c4.4,12.1,15.2,26.8,32.5,44.1l0,0c7.2,7.2,18.9,7.2,26.1,0l63.9-63.9
							C415,548.7,413.7,547.4,412.5,546.1z"/>
					</g>
					<g>
						<g>
							<g>
								<path class="st1" d="M256.4,486.2c-32.1,3.1-61.7,11-85.5,22.9c-5,2.5-9.7,5.2-14.1,8c1.6,9.1,4.4,18,8.3,26.9
									c5.1-3.8,11-7.5,17.8-10.8c22.1-11.1,50.2-18.1,80.9-20.6C256.8,502.9,254.3,494.2,256.4,486.2z"/>
							</g>
							<g>
								<path class="st1" d="M412.5,546.1c-7.6-8-11.9-14.1-13-18.2c-1-4-0.2-10.6,2.4-19.8c-26.4-12.8-59.7-20.7-95.4-22.9
									c1.7,6.8,0.7,14.8-2.8,24l-1,2.6c33.8,1.8,65,9.1,89.1,21.1C399.9,537,406.8,541.5,412.5,546.1z"/>
							</g>
						</g>
					</g>
				</g>
			</g>
		</g>
	</g>
</g>
</svg>
